<svg xmlns="http://www.w3.org/2000/svg" xmlns:xlink="http://www.w3.org/1999/xlink" aria-hidden="true" role="img" width="1em" height="1em" preserveAspectRatio="xMidYMid meet" viewBox="0 0 24 24">
	<rect x="0" y="0" width="24" height="24" fill="none" stroke="none" />
	<path d="M11.024 11.536L10 10l-2 3h9l-3.5-5z" fill="currentColor" />
	<circle cx="9.503" cy="7.497" r="1.503" fill="currentColor" />
	<path d="M19 2H6c-1.206 0-3 .799-3 3v14c0 2.201 1.794 3 3 3h15v-2H6.012C5.55 19.988 5 19.806 5 19s.55-.988 1.012-1H21V4c0-1.103-.897-2-2-2zm0 14H5V5c0-.806.55-.988 1-1h13v12z" fill="currentColor" />
</svg>
