<svg xmlns="http://www.w3.org/2000/svg" xmlns:xlink="http://www.w3.org/1999/xlink" aria-hidden="true" role="img" width="1em" height="1em" preserveAspectRatio="xMidYMid meet" viewBox="0 0 16 16">
	<rect x="0" y="0" width="16" height="16" fill="none" stroke="none" />
	<g fill="none">
		<path d="M7 7a.5.5 0 0 0 0 1h2a.5.5 0 0 0 0-1H7z" fill="currentColor" />
		<path d="M2 5a1 1 0 0 0 1 1v6a2 2 0 0 0 2 2h6a2 2 0 0 0 2-2V6a1 1 0 0 0 1-1V3a1 1 0 0 0-1-1H3a1 1 0 0 0-1 1v2zm11-2v2H3V3h10zM4 6h8v6a1 1 0 0 1-1 1H5a1 1 0 0 1-1-1V6z" fill="currentColor" />
	</g>
</svg>
