<svg xmlns="http://www.w3.org/2000/svg" xmlns:xlink="http://www.w3.org/1999/xlink" aria-hidden="true" role="img" width="1em" height="1em" preserveAspectRatio="xMidYMid meet" viewBox="0 0 36 36">
	<rect x="0" y="0" width="36" height="36" fill="none" stroke="none" />
	<path d="M10 18c0-1.3-.8-2.4-2-2.8v-3.4c1.2-.4 2-1.5 2-2.8c0-1.7-1.3-3-3-3S4 7.3 4 9c0 1.3.8 2.4 2 2.8v3.4c-1.2.4-2 1.5-2 2.8s.8 2.4 2 2.8v3.4c-1.2.4-2 1.5-2 2.8c0 1.7 1.3 3 3 3s3-1.3 3-3c0-1.3-.8-2.4-2-2.8v-3.4c1.2-.4 2-1.5 2-2.8z" fill="currentColor" />
	<path d="M31 10H15c-.6 0-1-.4-1-1s.4-1 1-1h16c.6 0 1 .4 1 1s-.4 1-1 1z" fill="currentColor" />
	<path d="M31 19H15c-.6 0-1-.4-1-1s.4-1 1-1h16c.6 0 1 .4 1 1s-.4 1-1 1z" fill="currentColor" />
	<path d="M31 28H15c-.6 0-1-.4-1-1s.4-1 1-1h16c.6 0 1 .4 1 1s-.4 1-1 1z" fill="currentColor" />
</svg>
